M48
; DRILL file KiCad 10.0.3 date 2026-09-13T00:22:28
; FORMAT={-:-/ absolute / metric / decimal}
; #@! TF.CreationDate,2026-09-13T00:22:28-04:00
; #@! TF.GenerationSoftware,Kicad,Pcbnew,10.0.3
; #@! TF.FileFunction,Plated,1,2,PTH
FMAT,2
METRIC
; #@! TA.AperFunction,Plated,PTH,ViaDrill
T1C0.300
; #@! TA.AperFunction,Plated,PTH,ComponentDrill
T2C0.710
; #@! TA.AperFunction,Plated,PTH,ComponentDrill
T3C0.750
; #@! TA.AperFunction,Plated,PTH,ComponentDrill
T4C0.800
; #@! TA.AperFunction,Plated,PTH,ComponentDrill
T5C0.813
; #@! TA.AperFunction,Plated,PTH,ComponentDrill
T6C0.900
; #@! TA.AperFunction,Plated,PTH,ComponentDrill
T7C1.000
; #@! TA.AperFunction,Plated,PTH,ComponentDrill
T8C1.100
; #@! TA.AperFunction,Plated,PTH,ComponentDrill
T9C1.500
; #@! TA.AperFunction,Plated,PTH,ComponentDrill
T10C1.550
; #@! TA.AperFunction,Plated,PTH,ComponentDrill
T11C2.100
; #@! TA.AperFunction,Plated,PTH,ComponentDrill
T12C2.500
%
G90
G05
T1
X131.2Y-122.3
X131.2Y-128.8
X135.6Y-84.1
X136.8Y-84.1
X139.5Y-122.8
X141.3Y-120.0
X148.3Y-117.3
X149.6Y-108.7
X150.8Y-92.1
X150.8Y-108.5
X154.3Y-91.2
X155.6Y-101.1
X155.6Y-119.8
X156.8Y-119.0
X157.2Y-99.6
X157.4Y-82.4
X158.2Y-89.4
X158.3Y-83.3
X159.1Y-88.5
X164.0Y-126.3
X164.9Y-97.6
X165.2Y-126.3
X166.1Y-96.4
X171.6Y-119.8
T2
X170.4Y-135.05
X171.6Y-129.95
T3
X139.36Y-118.5
X139.36Y-119.77
X139.36Y-121.04
X149.5Y-90.46
X149.5Y-91.73
X149.5Y-93.0
X159.0Y-93.5
X159.0Y-94.77
X159.0Y-96.04
X162.705Y-128.053
X163.975Y-128.053
X165.245Y-128.053
T4
X126.75Y-82.75
X128.0Y-127.0
X131.75Y-82.75
X133.0Y-127.0
X134.25Y-82.75
X135.5Y-127.012
X137.75Y-124.0
X139.0Y-133.0
X139.0Y-135.0
X139.25Y-82.75
X140.25Y-124.0
X140.5Y-87.69
X140.5Y-95.31
X140.5Y-127.012
X142.5Y-118.5
X146.0Y-82.5
X146.0Y-87.5
X150.12Y-118.5
X152.0Y-106.0
X152.0Y-111.0
X155.0Y-93.0
X155.0Y-98.0
X155.19Y-88.0
X161.25Y-68.19
X161.25Y-75.81
X162.5Y-121.5
X162.75Y-124.5
X162.81Y-88.0
X163.75Y-93.0
X165.25Y-124.5
X165.5Y-83.0
X165.5Y-88.0
X166.25Y-93.0
X167.5Y-121.5
X169.5Y-93.0
X174.5Y-93.0
T5
X125.0Y-118.94
X125.0Y-126.56
X127.38Y-118.5
X127.38Y-121.0
X127.38Y-123.5
X135.0Y-118.5
X135.0Y-121.0
X135.0Y-123.5
X140.0Y-68.88
X140.0Y-76.5
X142.5Y-68.94
X142.5Y-76.56
X143.0Y-87.38
X143.0Y-95.0
X146.0Y-90.0
X146.0Y-97.62
X146.88Y-116.0
X148.5Y-95.69
X148.5Y-103.31
X151.0Y-95.69
X151.0Y-103.31
X152.19Y-118.5
X153.19Y-90.5
X154.5Y-116.0
X155.19Y-83.0
X155.19Y-85.5
X158.5Y-68.19
X158.5Y-75.81
X159.81Y-118.5
X160.44Y-136.0
X160.81Y-90.5
X162.202Y-118.689
X162.81Y-83.0
X162.81Y-85.5
X162.88Y-96.0
X168.0Y-124.0
X168.0Y-131.62
X168.06Y-136.0
X168.5Y-82.69
X168.5Y-90.31
X169.822Y-118.689
X170.5Y-96.0
X171.0Y-82.69
X171.0Y-90.31
X172.5Y-118.69
X172.5Y-126.31
T6
X148.73Y-85.0
X151.27Y-85.0
T7
X129.5Y-80.0
X132.0Y-80.0
X133.5Y-130.67
X133.5Y-133.21
X133.5Y-135.75
X134.5Y-80.0
X148.0Y-80.0
X150.5Y-80.0
X153.0Y-80.0
X166.5Y-80.0
X169.0Y-80.0
X171.5Y-80.0
X176.1Y-130.89
X176.1Y-133.43
X176.1Y-135.97
T8
X148.75Y-105.63
X148.75Y-113.25
T9
X127.075Y-99.46
X127.075Y-115.69
X139.775Y-99.46
X139.775Y-115.69
X161.225Y-99.56
X161.225Y-115.79
X173.925Y-99.56
X173.925Y-115.79
T10
X133.5Y-104.95
X133.5Y-109.75
T11
X125.0Y-78.5
X142.5Y-83.0
X174.25Y-83.25
X175.25Y-125.5
T12
X145.8Y-124.35
X145.8Y-129.05
X145.8Y-133.75
X150.5Y-124.35
X150.5Y-129.05
X150.5Y-133.75
X155.2Y-124.35
X155.2Y-129.05
X155.2Y-133.75
T7
G00X130.5Y-90.233
M15
G01X130.5Y-92.233
M16
G05
G00X132.5Y-95.932
M15
G01X134.5Y-95.932
M16
G05
G00X136.5Y-90.233
M15
G01X136.5Y-92.233
M16
G05
G00X136.8Y-72.85
M15
G01X136.8Y-72.15
M16
G05
G00X145.7Y-72.85
M15
G01X145.7Y-72.15
M16
G05
G00X155.3Y-72.85
M15
G01X155.3Y-72.15
M16
G05
G00X164.2Y-72.85
M15
G01X164.2Y-72.15
M16
G05
G00X173.8Y-72.85
M15
G01X173.8Y-72.15
M16
G05
T8
G00X127.2Y-72.85
M15
G01X127.2Y-72.15
M16
G05
M30
