%TF.GenerationSoftware,KiCad,Pcbnew,9.0.0*%
%TF.CreationDate,2026-08-05T21:13:52-04:00*%
%TF.ProjectId,BIG_MUFF,4249475f-4d55-4464-962e-6b696361645f,rev?*%
%TF.SameCoordinates,Original*%
%TF.FileFunction,Copper,L1,Top*%
%TF.FilePolarity,Positive*%
%FSLAX46Y46*%
G04 Gerber Fmt 4.6, Leading zero omitted, Abs format (unit mm)*
G04 Created by KiCad (PCBNEW 9.0.0) date 2026-08-05 21:13:52*
%MOMM*%
%LPD*%
G01*
G04 APERTURE LIST*
G04 Aperture macros list*
%AMRoundRect*
0 Rectangle with rounded corners*
0 $1 Rounding radius*
0 $2 $3 $4 $5 $6 $7 $8 $9 X,Y pos of 4 corners*
0 Add a 4 corners polygon primitive as box body*
4,1,4,$2,$3,$4,$5,$6,$7,$8,$9,$2,$3,0*
0 Add four circle primitives for the rounded corners*
1,1,$1+$1,$2,$3*
1,1,$1+$1,$4,$5*
1,1,$1+$1,$6,$7*
1,1,$1+$1,$8,$9*
0 Add four rect primitives between the rounded corners*
20,1,$1+$1,$2,$3,$4,$5,0*
20,1,$1+$1,$4,$5,$6,$7,0*
20,1,$1+$1,$6,$7,$8,$9,0*
20,1,$1+$1,$8,$9,$2,$3,0*%
G04 Aperture macros list end*
%TA.AperFunction,ComponentPad*%
%ADD10C,1.397000*%
%TD*%
%TA.AperFunction,ComponentPad*%
%ADD11O,1.600000X1.600000*%
%TD*%
%TA.AperFunction,ComponentPad*%
%ADD12R,1.600000X1.600000*%
%TD*%
%TA.AperFunction,ComponentPad*%
%ADD13C,1.800000*%
%TD*%
%TA.AperFunction,ComponentPad*%
%ADD14R,1.800000X1.800000*%
%TD*%
%TA.AperFunction,ComponentPad*%
%ADD15R,1.700000X1.700000*%
%TD*%
%TA.AperFunction,ComponentPad*%
%ADD16O,1.700000X1.700000*%
%TD*%
%TA.AperFunction,ComponentPad*%
%ADD17C,1.710000*%
%TD*%
%TA.AperFunction,ComponentPad*%
%ADD18C,2.700000*%
%TD*%
%TA.AperFunction,ComponentPad*%
%ADD19R,1.500000X1.050000*%
%TD*%
%TA.AperFunction,ComponentPad*%
%ADD20O,1.500000X1.050000*%
%TD*%
%TA.AperFunction,ComponentPad*%
%ADD21C,1.600000*%
%TD*%
%TA.AperFunction,ComponentPad*%
%ADD22R,3.500000X3.500000*%
%TD*%
%TA.AperFunction,ComponentPad*%
%ADD23RoundRect,0.750000X-0.750000X-1.000000X0.750000X-1.000000X0.750000X1.000000X-0.750000X1.000000X0*%
%TD*%
%TA.AperFunction,ComponentPad*%
%ADD24RoundRect,0.875000X-0.875000X-0.875000X0.875000X-0.875000X0.875000X0.875000X-0.875000X0.875000X0*%
%TD*%
%TA.AperFunction,ComponentPad*%
%ADD25O,2.300000X3.000000*%
%TD*%
%TA.AperFunction,ComponentPad*%
%ADD26C,3.000000*%
%TD*%
%TA.AperFunction,ComponentPad*%
%ADD27R,3.000000X3.000000*%
%TD*%
%TA.AperFunction,ComponentPad*%
%ADD28R,4.000000X4.000000*%
%TD*%
%TA.AperFunction,ComponentPad*%
%ADD29C,4.000000*%
%TD*%
%TA.AperFunction,ComponentPad*%
%ADD30R,2.200000X2.200000*%
%TD*%
%TA.AperFunction,ComponentPad*%
%ADD31O,2.200000X2.200000*%
%TD*%
%TA.AperFunction,ComponentPad*%
%ADD32R,1.050000X1.500000*%
%TD*%
%TA.AperFunction,ComponentPad*%
%ADD33O,1.050000X1.500000*%
%TD*%
%TA.AperFunction,ComponentPad*%
%ADD34RoundRect,0.249999X-1.025001X1.025001X-1.025001X-1.025001X1.025001X-1.025001X1.025001X1.025001X0*%
%TD*%
%TA.AperFunction,ComponentPad*%
%ADD35C,2.550000*%
%TD*%
%TA.AperFunction,ViaPad*%
%ADD36C,0.600000*%
%TD*%
%TA.AperFunction,Conductor*%
%ADD37C,0.199800*%
%TD*%
G04 APERTURE END LIST*
D10*
%TO.P,R7,2*%
%TO.N,Net-(D2-K)*%
X143000000Y-87380000D03*
%TO.P,R7,1*%
%TO.N,/+9V*%
X143000000Y-95000000D03*
%TD*%
D11*
%TO.P,D1,2,A*%
%TO.N,/+DC_PWR*%
X140500000Y-87690000D03*
D12*
%TO.P,D1,1,K*%
%TO.N,/+9V*%
X140500000Y-95310000D03*
%TD*%
D10*
%TO.P,R12,2*%
%TO.N,Net-(C5-Pad1)*%
X168500000Y-90310000D03*
%TO.P,R12,1*%
%TO.N,/STAGE2_IN*%
X168500000Y-82690000D03*
%TD*%
%TO.P,R24,2*%
%TO.N,/GND*%
X125000000Y-118940000D03*
%TO.P,R24,1*%
%TO.N,/TONE_HI*%
X125000000Y-126560000D03*
%TD*%
D13*
%TO.P,D2,2,A*%
%TO.N,/CATHODE*%
X151270000Y-85000000D03*
D14*
%TO.P,D2,1,K*%
%TO.N,Net-(D2-K)*%
X148730000Y-85000000D03*
%TD*%
D15*
%TO.P,J5,1*%
%TO.N,/OUTPUT*%
X176100000Y-135970000D03*
D16*
%TO.P,J5,2*%
%TO.N,/GND*%
X176100000Y-133430000D03*
%TO.P,J5,3*%
%TO.N,Net-(F1-Pad1)*%
X176100000Y-130890000D03*
%TD*%
D10*
%TO.P,R20,1*%
%TO.N,/Q1_B*%
X142000000Y-76560000D03*
%TO.P,R20,2*%
%TO.N,/GND*%
X142000000Y-68940000D03*
%TD*%
D17*
%TO.P,F1,1*%
%TO.N,Net-(F1-Pad1)*%
X171600000Y-129950000D03*
%TO.P,F1,2*%
%TO.N,/+9V*%
X170400000Y-135050000D03*
%TD*%
D12*
%TO.P,D6,1,K*%
%TO.N,/Q2_B*%
X150120000Y-118500000D03*
D11*
%TO.P,D6,2,A*%
%TO.N,/Q2_C*%
X142500000Y-118500000D03*
%TD*%
D10*
%TO.P,R9,1*%
%TO.N,/Q3_E*%
X162880000Y-96000000D03*
%TO.P,R9,2*%
%TO.N,/GND*%
X170500000Y-96000000D03*
%TD*%
D18*
%TO.P,H3,*%
%TO.N,*%
X175250000Y-125500000D03*
%TD*%
D10*
%TO.P,R16,1*%
%TO.N,/Q2_B*%
X135000000Y-121000000D03*
%TO.P,R16,2*%
%TO.N,/Q2_C*%
X127380000Y-121000000D03*
%TD*%
D19*
%TO.P,Q2,1,C*%
%TO.N,/Q3_C*%
X159000000Y-93500000D03*
D20*
%TO.P,Q2,2,B*%
%TO.N,/Q3_B*%
X159000000Y-94770000D03*
%TO.P,Q2,3,E*%
%TO.N,/Q3_E*%
X159000000Y-96040000D03*
%TD*%
D10*
%TO.P,R15,1*%
%TO.N,/Q2_B*%
X146880000Y-116000000D03*
%TO.P,R15,2*%
%TO.N,/GND*%
X154500000Y-116000000D03*
%TD*%
D21*
%TO.P,C14,1*%
%TO.N,/TONE_LO*%
X139250000Y-82750000D03*
%TO.P,C14,2*%
%TO.N,/GND*%
X134250000Y-82750000D03*
%TD*%
D10*
%TO.P,R4,1*%
%TO.N,/+9V*%
X168000000Y-131620000D03*
%TO.P,R4,2*%
%TO.N,/Q4_C*%
X168000000Y-124000000D03*
%TD*%
%TO.P,R1,1*%
%TO.N,/Q4_B*%
X172500000Y-118690000D03*
%TO.P,R1,2*%
%TO.N,/GND*%
X172500000Y-126310000D03*
%TD*%
D21*
%TO.P,C10,1*%
%TO.N,Net-(C10-Pad1)*%
X152000000Y-106000000D03*
%TO.P,C10,2*%
%TO.N,/Q2_B*%
X152000000Y-111000000D03*
%TD*%
%TO.P,C9,1*%
%TO.N,/Q2_C*%
X141250000Y-127011600D03*
%TO.P,C9,2*%
%TO.N,/TONE_IN*%
X136250000Y-127011600D03*
%TD*%
D10*
%TO.P,R10,1*%
%TO.N,/Q3_B*%
X162810000Y-85500000D03*
%TO.P,R10,2*%
%TO.N,/Q3_C*%
X155190000Y-85500000D03*
%TD*%
D21*
%TO.P,C5,1*%
%TO.N,Net-(C5-Pad1)*%
X174500000Y-93000000D03*
%TO.P,C5,2*%
%TO.N,/Q3_B*%
X169500000Y-93000000D03*
%TD*%
%TO.P,C12,1*%
%TO.N,/Q1_C*%
X146000000Y-87500000D03*
%TO.P,C12,2*%
%TO.N,Net-(C12-Pad2)*%
X146000000Y-82500000D03*
%TD*%
D22*
%TO.P,J1,1*%
%TO.N,/+DC_PWR*%
X136500000Y-91232500D03*
D23*
%TO.P,J1,2*%
%TO.N,/GND*%
X130500000Y-91232500D03*
D24*
%TO.P,J1,3*%
%TO.N,/+BATT*%
X133500000Y-95932500D03*
%TD*%
D10*
%TO.P,R19,1*%
%TO.N,/Q1_B*%
X146000000Y-97620000D03*
%TO.P,R19,2*%
%TO.N,/Q1_C*%
X146000000Y-90000000D03*
%TD*%
%TO.P,R6,1*%
%TO.N,Net-(R5-Pad3)*%
X171000000Y-82690000D03*
%TO.P,R6,2*%
%TO.N,/GND*%
X171000000Y-90310000D03*
%TD*%
%TO.P,R3,1*%
%TO.N,/Q4_B*%
X162201900Y-118688800D03*
%TO.P,R3,2*%
%TO.N,/Q4_C*%
X169821900Y-118688800D03*
%TD*%
D18*
%TO.P,H2,*%
%TO.N,*%
X142500000Y-83000000D03*
%TD*%
D21*
%TO.P,C1,1*%
%TO.N,/Q4_B*%
X162750000Y-124500000D03*
%TO.P,C1,2*%
%TO.N,/Q4_C*%
X165250000Y-124500000D03*
%TD*%
D19*
%TO.P,Q3,1,C*%
%TO.N,/Q2_C*%
X139360000Y-121040000D03*
D20*
%TO.P,Q3,2,B*%
%TO.N,/Q2_B*%
X139360000Y-119770000D03*
%TO.P,Q3,3,E*%
%TO.N,/Q2_E*%
X139360000Y-118500000D03*
%TD*%
D10*
%TO.P,R25,1*%
%TO.N,/TONE_IN*%
X139500000Y-76500000D03*
%TO.P,R25,2*%
%TO.N,/TONE_LO*%
X139500000Y-68880000D03*
%TD*%
D21*
%TO.P,C7,1*%
%TO.N,/Q3_C*%
X155000000Y-93000000D03*
%TO.P,C7,2*%
%TO.N,/STAGE3_IN*%
X155000000Y-98000000D03*
%TD*%
D10*
%TO.P,R17,1*%
%TO.N,/Q2_E*%
X135000000Y-118500000D03*
%TO.P,R17,2*%
%TO.N,/GND*%
X127380000Y-118500000D03*
%TD*%
%TO.P,R2,1*%
%TO.N,/Q4_E*%
X160440000Y-136000000D03*
%TO.P,R2,2*%
%TO.N,/GND*%
X168060000Y-136000000D03*
%TD*%
%TO.P,R13,1*%
%TO.N,/IN_JACK*%
X152190000Y-118500000D03*
%TO.P,R13,2*%
%TO.N,Net-(C6-Pad1)*%
X159810000Y-118500000D03*
%TD*%
%TO.P,R14,1*%
%TO.N,/+9V*%
X127380000Y-123500000D03*
%TO.P,R14,2*%
%TO.N,/Q2_C*%
X135000000Y-123500000D03*
%TD*%
D21*
%TO.P,C11,1*%
%TO.N,/RECOVERY_IN*%
X126750000Y-82750000D03*
%TO.P,C11,2*%
%TO.N,/Q1_B*%
X131750000Y-82750000D03*
%TD*%
D10*
%TO.P,R21,1*%
%TO.N,/Q1_E*%
X148500000Y-95690000D03*
%TO.P,R21,2*%
%TO.N,/GND*%
X148500000Y-103310000D03*
%TD*%
D25*
%TO.P,R23,*%
%TO.N,*%
X145200000Y-72500000D03*
X154800000Y-72500000D03*
D14*
%TO.P,R23,1,1*%
%TO.N,Net-(C12-Pad2)*%
X147500000Y-80000000D03*
D13*
%TO.P,R23,2,2*%
%TO.N,/FX_OUT*%
X150000000Y-80000000D03*
%TO.P,R23,3,3*%
%TO.N,/GND*%
X152500000Y-80000000D03*
%TD*%
D21*
%TO.P,C8,1*%
%TO.N,/Q2_B*%
X137750000Y-124000000D03*
%TO.P,C8,2*%
%TO.N,/Q2_C*%
X140250000Y-124000000D03*
%TD*%
D12*
%TO.P,C2,1*%
%TO.N,/+9V*%
X139000000Y-133000000D03*
D21*
%TO.P,C2,2*%
%TO.N,/GND*%
X139000000Y-135000000D03*
%TD*%
D25*
%TO.P,R5,*%
%TO.N,*%
X163700000Y-72500000D03*
X173300000Y-72500000D03*
D14*
%TO.P,R5,1,1*%
%TO.N,Net-(C3-Pad2)*%
X166000000Y-80000000D03*
D13*
%TO.P,R5,2,2*%
%TO.N,/STAGE2_IN*%
X168500000Y-80000000D03*
%TO.P,R5,3,3*%
%TO.N,Net-(R5-Pad3)*%
X171000000Y-80000000D03*
%TD*%
D19*
%TO.P,Q4,1,C*%
%TO.N,/Q1_C*%
X149500000Y-90460000D03*
D20*
%TO.P,Q4,2,B*%
%TO.N,/Q1_B*%
X149500000Y-91730000D03*
%TO.P,Q4,3,E*%
%TO.N,/Q1_E*%
X149500000Y-93000000D03*
%TD*%
D15*
%TO.P,J4,1*%
%TO.N,/+9V*%
X133500000Y-130670000D03*
D16*
%TO.P,J4,2*%
%TO.N,/GND*%
X133500000Y-133210000D03*
%TO.P,J4,3*%
%TO.N,/TIP*%
X133500000Y-135750000D03*
%TD*%
D21*
%TO.P,C4,1*%
%TO.N,/Q3_B*%
X163750000Y-93000000D03*
%TO.P,C4,2*%
%TO.N,/Q3_C*%
X166250000Y-93000000D03*
%TD*%
D12*
%TO.P,D3,1,K*%
%TO.N,/Q3_B*%
X162810000Y-88000000D03*
D11*
%TO.P,D3,2,A*%
%TO.N,/Q3_C*%
X155190000Y-88000000D03*
%TD*%
D12*
%TO.P,D4,1,K*%
%TO.N,/Q3_C*%
X160750000Y-68190000D03*
D11*
%TO.P,D4,2,A*%
%TO.N,/Q3_B*%
X160750000Y-75810000D03*
%TD*%
D10*
%TO.P,R18,1*%
%TO.N,/STAGE3_IN*%
X151000000Y-95690000D03*
%TO.P,R18,2*%
%TO.N,Net-(C10-Pad1)*%
X151000000Y-103310000D03*
%TD*%
D21*
%TO.P,C3,1*%
%TO.N,/Q4_C*%
X165500000Y-88000000D03*
%TO.P,C3,2*%
%TO.N,Net-(C3-Pad2)*%
X165500000Y-83000000D03*
%TD*%
D26*
%TO.P,J3,S*%
%TO.N,/GND*%
X161225000Y-115790000D03*
%TO.P,J3,SN*%
%TO.N,N/C*%
X161225000Y-99560000D03*
D27*
%TO.P,J3,T*%
%TO.N,/OUTPUT*%
X173925000Y-115790000D03*
D26*
%TO.P,J3,TN*%
%TO.N,N/C*%
X173925000Y-99560000D03*
%TD*%
D10*
%TO.P,R11,1*%
%TO.N,/+9V*%
X158000000Y-75810000D03*
%TO.P,R11,2*%
%TO.N,/Q3_C*%
X158000000Y-68190000D03*
%TD*%
D25*
%TO.P,R26,*%
%TO.N,*%
X126700000Y-72500000D03*
X136300000Y-72500000D03*
D14*
%TO.P,R26,1,1*%
%TO.N,/TONE_HI*%
X129000000Y-80000000D03*
D13*
%TO.P,R26,2,2*%
%TO.N,/RECOVERY_IN*%
X131500000Y-80000000D03*
%TO.P,R26,3,3*%
%TO.N,/TONE_LO*%
X134000000Y-80000000D03*
%TD*%
D28*
%TO.P,SW6,1,A1*%
%TO.N,/IN_JACK*%
X146350000Y-124350000D03*
D29*
%TO.P,SW6,2,A2*%
%TO.N,/FX_OUT*%
X151050000Y-124350000D03*
%TO.P,SW6,3,A3*%
%TO.N,/CATHODE*%
X155750000Y-124350000D03*
%TO.P,SW6,4,COM1*%
%TO.N,/TIP*%
X146350000Y-129050000D03*
%TO.P,SW6,5,COM2*%
%TO.N,/OUTPUT*%
X151050000Y-129050000D03*
%TO.P,SW6,6,COM3*%
%TO.N,/GND*%
X155750000Y-129050000D03*
%TO.P,SW6,7,B1*%
%TO.N,Net-(SW6A-B1)*%
X146350000Y-133750000D03*
%TO.P,SW6,8,B2*%
X151050000Y-133750000D03*
%TO.P,SW6,9,B3*%
%TO.N,unconnected-(SW6C-B3-Pad9)*%
X155750000Y-133750000D03*
%TD*%
D21*
%TO.P,C6,1*%
%TO.N,Net-(C6-Pad1)*%
X162500000Y-121500000D03*
%TO.P,C6,2*%
%TO.N,/Q4_B*%
X167500000Y-121500000D03*
%TD*%
%TO.P,C13,1*%
%TO.N,/TONE_IN*%
X133000000Y-127000000D03*
%TO.P,C13,2*%
%TO.N,/TONE_HI*%
X128000000Y-127000000D03*
%TD*%
D30*
%TO.P,D5,1,K*%
%TO.N,/Q2_C*%
X148750000Y-113250000D03*
D31*
%TO.P,D5,2,A*%
%TO.N,/Q2_B*%
X148750000Y-105630000D03*
%TD*%
D32*
%TO.P,Q1,1,C*%
%TO.N,/Q4_C*%
X165245200Y-128053200D03*
D33*
%TO.P,Q1,2,B*%
%TO.N,/Q4_B*%
X163975200Y-128053200D03*
%TO.P,Q1,3,E*%
%TO.N,/Q4_E*%
X162705200Y-128053200D03*
%TD*%
D10*
%TO.P,R8,1*%
%TO.N,/Q3_B*%
X162810000Y-83000000D03*
%TO.P,R8,2*%
%TO.N,/GND*%
X155190000Y-83000000D03*
%TD*%
D18*
%TO.P,H1,*%
%TO.N,*%
X174250000Y-83250000D03*
%TD*%
D26*
%TO.P,J2,S*%
%TO.N,/GND*%
X139775000Y-99460000D03*
%TO.P,J2,SN*%
%TO.N,N/C*%
X139775000Y-115690000D03*
D27*
%TO.P,J2,T*%
%TO.N,/TIP*%
X127075000Y-99460000D03*
D26*
%TO.P,J2,TN*%
%TO.N,N/C*%
X127075000Y-115690000D03*
%TD*%
D10*
%TO.P,R22,1*%
%TO.N,/+9V*%
X160810000Y-90500000D03*
%TO.P,R22,2*%
%TO.N,/Q1_C*%
X153190000Y-90500000D03*
%TD*%
D34*
%TO.P,BT1,1,+*%
%TO.N,/+BATT*%
X133500000Y-104950000D03*
D35*
%TO.P,BT1,2,-*%
%TO.N,/GND*%
X133500000Y-109750000D03*
%TD*%
D36*
%TO.N,/Q4_C*%
X171600000Y-119800000D03*
X165200000Y-126300000D03*
%TO.N,/Q4_B*%
X164000000Y-126300000D03*
%TO.N,/+9V*%
X158200000Y-89400000D03*
X157200000Y-99600000D03*
X131200000Y-128800000D03*
X155600000Y-101100000D03*
X157400000Y-82400000D03*
X159100000Y-88500000D03*
X158300000Y-83300000D03*
%TO.N,/Q3_C*%
X166100000Y-96400000D03*
X154300000Y-91200000D03*
X164900000Y-97600000D03*
%TO.N,/Q2_C*%
X131200000Y-122300000D03*
X141300000Y-120000000D03*
%TO.N,/Q2_B*%
X148300000Y-117300000D03*
X139500000Y-122800000D03*
X150800000Y-108500000D03*
X149600000Y-108700000D03*
%TO.N,/Q1_B*%
X135600000Y-84100000D03*
X136800000Y-84100000D03*
%TO.N,/Q1_C*%
X150800000Y-92100000D03*
%TO.N,/FX_OUT*%
X156800000Y-119000000D03*
X155600000Y-119800000D03*
%TD*%
D37*
%TO.N,/+9V*%
X142010000Y-95310000D02*
X140500000Y-95310000D01*
X149500000Y-102800000D02*
X142010000Y-95310000D01*
X149500000Y-102900000D02*
X149500000Y-102800000D01*
X149600000Y-104400000D02*
X149600000Y-103000000D01*
X150100000Y-104900000D02*
X149600000Y-104400000D01*
X149600000Y-103000000D02*
X149500000Y-102900000D01*
X150200000Y-105200000D02*
X150100000Y-105100000D01*
X141400000Y-124500000D02*
X141400000Y-123300000D01*
X140000000Y-125900000D02*
X141400000Y-124500000D01*
X150100000Y-105100000D02*
X150100000Y-104900000D01*
X141400000Y-123300000D02*
X150200000Y-114500000D01*
X140000000Y-132000000D02*
X140000000Y-125900000D01*
X139000000Y-133000000D02*
X140000000Y-132000000D01*
X150200000Y-114500000D02*
X150200000Y-105200000D01*
%TO.N,/+DC_PWR*%
X140250000Y-87690000D02*
X140500000Y-87690000D01*
X136740000Y-91200000D02*
X140250000Y-87690000D01*
X136500000Y-91200000D02*
X136740000Y-91200000D01*
%TO.N,/Q3_C*%
X159500000Y-68190000D02*
X160750000Y-68190000D01*
X158000000Y-68190000D02*
X159500000Y-68190000D01*
%TO.N,/Q1_B*%
X142000000Y-79000000D02*
X142000000Y-76560000D01*
%TO.N,/Q4_B*%
X171351099Y-119199100D02*
X171990900Y-119199100D01*
X170999100Y-119551099D02*
X171351099Y-119199100D01*
X171990900Y-119199100D02*
X172500000Y-118690000D01*
X169500000Y-119700000D02*
X169600000Y-119800000D01*
X169300000Y-119700000D02*
X169500000Y-119700000D01*
X167500000Y-121500000D02*
X169300000Y-119700000D01*
X169600000Y-119800000D02*
X170999100Y-119800000D01*
X170999100Y-119800000D02*
X170999100Y-119551099D01*
%TO.N,/OUTPUT*%
X166200000Y-127300000D02*
X166200000Y-127200000D01*
X174870000Y-135970000D02*
X166200000Y-127300000D01*
X176500000Y-135970000D02*
X174870000Y-135970000D01*
X166200000Y-127200000D02*
X165900000Y-126900000D01*
%TO.N,Net-(F1-Pad1)*%
X176500000Y-130700000D02*
X175800000Y-130000000D01*
X175800000Y-130000000D02*
X171600000Y-130000000D01*
X176500000Y-130890000D02*
X176500000Y-130700000D01*
%TO.N,/+BATT*%
X133500000Y-95900000D02*
X133500000Y-105000000D01*
%TO.N,/Q4_C*%
X171600000Y-120400000D02*
X168000000Y-124000000D01*
X165500000Y-114400000D02*
X165500000Y-93900000D01*
X171600000Y-119800000D02*
X171600000Y-120400000D01*
X165500000Y-93900000D02*
X165100000Y-93500000D01*
X169800000Y-118700000D02*
X165500000Y-114400000D01*
X165100000Y-93500000D02*
X165100000Y-88400000D01*
X165100000Y-88400000D02*
X165500000Y-88000000D01*
X165200000Y-124500000D02*
X165200000Y-126300000D01*
X167500000Y-124500000D02*
X165200000Y-124500000D01*
%TO.N,/Q4_B*%
X165400000Y-121900000D02*
X162200000Y-118700000D01*
X162900000Y-124400000D02*
X163400000Y-124900000D01*
X163500000Y-124900000D02*
X164000000Y-125400000D01*
X165800000Y-121500000D02*
X167500000Y-121500000D01*
X164000000Y-125400000D02*
X164000000Y-126300000D01*
X163400000Y-124900000D02*
X163500000Y-124900000D01*
X162800000Y-124500000D02*
X165800000Y-121500000D01*
%TO.N,/+9V*%
X145200000Y-127000000D02*
X145400000Y-126800000D01*
X159300000Y-136400000D02*
X159900000Y-137000000D01*
X150400000Y-131400000D02*
X156800000Y-131400000D01*
X148800000Y-129900000D02*
X148900000Y-130000000D01*
X131200000Y-128800000D02*
X129200000Y-126800000D01*
X159100000Y-88500000D02*
X158000000Y-87400000D01*
X157500000Y-90100000D02*
X158200000Y-89400000D01*
X142300000Y-95600000D02*
X142900000Y-95000000D01*
X156800000Y-131400000D02*
X159300000Y-133900000D01*
X139000000Y-133000000D02*
X136700000Y-130700000D01*
X148500000Y-126700000D02*
X148700000Y-126900000D01*
X136700000Y-130700000D02*
X133500000Y-130700000D01*
X160200000Y-137100000D02*
X162500000Y-137100000D01*
X157600000Y-79100000D02*
X158000000Y-78700000D01*
X149000000Y-130200000D02*
X149000000Y-130300000D01*
X149200000Y-130500000D02*
X149200000Y-130600000D01*
X158700000Y-97800000D02*
X157500000Y-96600000D01*
X148900000Y-130000000D02*
X148900000Y-130100000D01*
X157600000Y-82200000D02*
X157600000Y-79100000D01*
X158000000Y-78700000D02*
X158000000Y-76500000D01*
X145600000Y-126800000D02*
X145700000Y-126700000D01*
X157400000Y-82400000D02*
X157600000Y-82200000D01*
X150200000Y-101100000D02*
X155600000Y-101100000D01*
X159300000Y-133900000D02*
X159300000Y-136400000D01*
X148800000Y-129800000D02*
X148800000Y-129900000D01*
X159900000Y-137000000D02*
X160100000Y-137000000D01*
X158700000Y-98100000D02*
X158700000Y-97800000D01*
X149000000Y-130300000D02*
X149200000Y-130500000D01*
X148900000Y-130100000D02*
X149000000Y-130200000D01*
X145400000Y-126800000D02*
X145600000Y-126800000D01*
X129200000Y-126800000D02*
X129200000Y-125300000D01*
X129200000Y-125300000D02*
X127400000Y-123500000D01*
X148700000Y-129700000D02*
X148800000Y-129800000D01*
X158000000Y-83600000D02*
X158300000Y-83300000D01*
X157500000Y-96600000D02*
X157500000Y-90100000D01*
X140000000Y-131600000D02*
X140400000Y-131600000D01*
X140400000Y-131600000D02*
X145000000Y-127000000D01*
X150300000Y-131500000D02*
X150400000Y-131400000D01*
X157200000Y-99600000D02*
X158700000Y-98100000D01*
X159100000Y-88500000D02*
X160800000Y-90200000D01*
X150100000Y-131500000D02*
X150300000Y-131500000D01*
X162500000Y-137100000D02*
X168000000Y-131600000D01*
X145000000Y-127000000D02*
X145200000Y-127000000D01*
X149200000Y-130600000D02*
X150100000Y-131500000D01*
X160100000Y-137000000D02*
X160200000Y-137100000D01*
X148700000Y-126900000D02*
X148700000Y-129700000D01*
X167500000Y-132100000D02*
X170400000Y-135000000D01*
X158000000Y-87400000D02*
X158000000Y-83600000D01*
X145700000Y-126700000D02*
X148500000Y-126700000D01*
X149000000Y-102300000D02*
X150200000Y-101100000D01*
%TO.N,/Q3_C*%
X157900000Y-96400000D02*
X158400000Y-96900000D01*
X158400000Y-96900000D02*
X158600000Y-96900000D01*
X163100000Y-97600000D02*
X164900000Y-97600000D01*
X162500000Y-97000000D02*
X163100000Y-97600000D01*
X157900000Y-94400000D02*
X157900000Y-96400000D01*
X158800000Y-93500000D02*
X157900000Y-94400000D01*
X158600000Y-96900000D02*
X158700000Y-97000000D01*
X158700000Y-97000000D02*
X162500000Y-97000000D01*
X166200000Y-96300000D02*
X166200000Y-93000000D01*
X159960000Y-68940000D02*
X160750000Y-68940000D01*
X155000000Y-91900000D02*
X155000000Y-93000000D01*
X154300000Y-91200000D02*
X155000000Y-91900000D01*
%TO.N,Net-(C3-Pad2)*%
X165500000Y-80500000D02*
X165500000Y-83000000D01*
X166000000Y-80000000D02*
X165500000Y-80500000D01*
%TO.N,/Q3_B*%
X162400000Y-94400000D02*
X163800000Y-93000000D01*
X159400000Y-94400000D02*
X162400000Y-94400000D01*
X167400000Y-89900000D02*
X167400000Y-90900000D01*
X168100000Y-89200000D02*
X167400000Y-89900000D01*
X163800000Y-93000000D02*
X162800000Y-92000000D01*
X166200000Y-87000000D02*
X168100000Y-88900000D01*
X165900000Y-86900000D02*
X166000000Y-86900000D01*
X160750000Y-78550000D02*
X160750000Y-76560000D01*
X159000000Y-94800000D02*
X159400000Y-94400000D01*
X162800000Y-85500000D02*
X162800000Y-83000000D01*
X164000000Y-86800000D02*
X162800000Y-85600000D01*
X168100000Y-88900000D02*
X168100000Y-89200000D01*
X166100000Y-87000000D02*
X166200000Y-87000000D01*
X160500000Y-80700000D02*
X160500000Y-78800000D01*
X162800000Y-88000000D02*
X164000000Y-86800000D01*
X166000000Y-86900000D02*
X166100000Y-87000000D01*
X160500000Y-78800000D02*
X160750000Y-78550000D01*
X165800000Y-86800000D02*
X165900000Y-86900000D01*
X162800000Y-92000000D02*
X162800000Y-88000000D01*
X164000000Y-86800000D02*
X165800000Y-86800000D01*
X162800000Y-83000000D02*
X160500000Y-80700000D01*
X167400000Y-90900000D02*
X169500000Y-93000000D01*
%TO.N,Net-(C5-Pad1)*%
X169600000Y-91400000D02*
X168500000Y-90300000D01*
X171400000Y-91400000D02*
X169600000Y-91400000D01*
X172000000Y-90800000D02*
X171400000Y-91400000D01*
X172300000Y-90800000D02*
X172000000Y-90800000D01*
X174500000Y-93000000D02*
X172300000Y-90800000D01*
%TO.N,Net-(C6-Pad1)*%
X162500000Y-121200000D02*
X162500000Y-121500000D01*
X159800000Y-118500000D02*
X162500000Y-121200000D01*
%TO.N,/STAGE3_IN*%
X155000000Y-98000000D02*
X152700000Y-95700000D01*
X152700000Y-95700000D02*
X151000000Y-95700000D01*
%TO.N,/Q2_C*%
X138000000Y-122800000D02*
X135700000Y-122800000D01*
X140200000Y-121000000D02*
X140200000Y-124000000D01*
X147800000Y-113200000D02*
X148800000Y-113200000D01*
X141300000Y-120000000D02*
X140300000Y-121000000D01*
X140300000Y-121000000D02*
X139400000Y-121000000D01*
X138100000Y-122900000D02*
X138000000Y-122800000D01*
X138300000Y-122900000D02*
X138100000Y-122900000D01*
X129900000Y-121000000D02*
X127400000Y-121000000D01*
X140200000Y-123500000D02*
X138900000Y-123500000D01*
X138900000Y-123500000D02*
X138300000Y-122900000D01*
X142500000Y-118500000D02*
X147800000Y-113200000D01*
X135700000Y-122800000D02*
X135000000Y-123500000D01*
X131200000Y-122300000D02*
X129900000Y-121000000D01*
%TO.N,/Q2_B*%
X141900000Y-119600000D02*
X142100000Y-119600000D01*
X141700000Y-119400000D02*
X141900000Y-119600000D01*
X149600000Y-108700000D02*
X148800000Y-107900000D01*
X148300000Y-117300000D02*
X152000000Y-113600000D01*
X137800000Y-120100000D02*
X137800000Y-121300000D01*
X150600000Y-108700000D02*
X150800000Y-108500000D01*
X139000000Y-120200000D02*
X138700000Y-120200000D01*
X148300000Y-117300000D02*
X149500000Y-118500000D01*
X142100000Y-119600000D02*
X142200000Y-119700000D01*
X135900000Y-120100000D02*
X135000000Y-121000000D01*
X143200000Y-119700000D02*
X146900000Y-116000000D01*
X152000000Y-111000000D02*
X150600000Y-109600000D01*
X149500000Y-118500000D02*
X150100000Y-118500000D01*
X142200000Y-119700000D02*
X143200000Y-119700000D01*
X139400000Y-119800000D02*
X139000000Y-120200000D01*
X139800000Y-119400000D02*
X141700000Y-119400000D01*
X138700000Y-120200000D02*
X138600000Y-120100000D01*
X137800000Y-121300000D02*
X138500000Y-122000000D01*
X139400000Y-119800000D02*
X139800000Y-119400000D01*
X138700000Y-122000000D02*
X139500000Y-122800000D01*
X148800000Y-107900000D02*
X148800000Y-105600000D01*
X152000000Y-113600000D02*
X152000000Y-111000000D01*
X150600000Y-109600000D02*
X150600000Y-108700000D01*
X138500000Y-122000000D02*
X138700000Y-122000000D01*
X138600000Y-120100000D02*
X135900000Y-120100000D01*
%TO.N,/TONE_IN*%
X134600000Y-125400000D02*
X133000000Y-127000000D01*
X134400000Y-89300000D02*
X134400000Y-93600000D01*
X134800000Y-93900000D02*
X134900000Y-93900000D01*
X136200000Y-87500000D02*
X134400000Y-89300000D01*
X134700000Y-93800000D02*
X134800000Y-93900000D01*
X133900000Y-124700000D02*
X136200000Y-127000000D01*
X134900000Y-93900000D02*
X135000000Y-94000000D01*
X139500000Y-78000000D02*
X139500000Y-76500000D01*
X135000000Y-94000000D02*
X135100000Y-94000000D01*
X134400000Y-93600000D02*
X134600000Y-93800000D01*
X134600000Y-93800000D02*
X134700000Y-93800000D01*
X133900000Y-118100000D02*
X133900000Y-124700000D01*
X136200000Y-81300000D02*
X136200000Y-87500000D01*
X135100000Y-94000000D02*
X136200000Y-95100000D01*
X139500000Y-78000000D02*
X136200000Y-81300000D01*
X136200000Y-95100000D02*
X136200000Y-115800000D01*
X136200000Y-115800000D02*
X133900000Y-118100000D01*
%TO.N,Net-(C10-Pad1)*%
X152000000Y-106000000D02*
X151000000Y-105000000D01*
X151000000Y-105000000D02*
X151000000Y-103300000D01*
%TO.N,/Q1_B*%
X145000000Y-83700000D02*
X149800000Y-83700000D01*
X150000000Y-89100000D02*
X150600000Y-89700000D01*
X134900000Y-83700000D02*
X134700000Y-83900000D01*
X150600000Y-91200000D02*
X150100000Y-91700000D01*
X144800000Y-82200000D02*
X144800000Y-83500000D01*
X135600000Y-84100000D02*
X135200000Y-83700000D01*
X140400000Y-80600000D02*
X140400000Y-83300000D01*
X132900000Y-83900000D02*
X131800000Y-82800000D01*
X148900000Y-92200000D02*
X148800000Y-92200000D01*
X144900000Y-81900000D02*
X144900000Y-82100000D01*
X148800000Y-92200000D02*
X146000000Y-95000000D01*
X139800000Y-83900000D02*
X137000000Y-83900000D01*
X149800000Y-83700000D02*
X150000000Y-83900000D01*
X149500000Y-91700000D02*
X149100000Y-92100000D01*
X149100000Y-92100000D02*
X149000000Y-92100000D01*
X144800000Y-83500000D02*
X145000000Y-83700000D01*
X134700000Y-83900000D02*
X132900000Y-83900000D01*
X135200000Y-83700000D02*
X134900000Y-83700000D01*
X150000000Y-83900000D02*
X150000000Y-89100000D01*
X150100000Y-91700000D02*
X149500000Y-91700000D01*
X140400000Y-83300000D02*
X139800000Y-83900000D01*
X142000000Y-79000000D02*
X144900000Y-81900000D01*
X144900000Y-82100000D02*
X144800000Y-82200000D01*
X149000000Y-92100000D02*
X148900000Y-92200000D01*
X146000000Y-95000000D02*
X146000000Y-97600000D01*
X137000000Y-83900000D02*
X136800000Y-84100000D01*
X150600000Y-89700000D02*
X150600000Y-91200000D01*
X142000000Y-79000000D02*
X140400000Y-80600000D01*
%TO.N,/RECOVERY_IN*%
X129800000Y-81200000D02*
X129900000Y-81300000D01*
X129900000Y-81300000D02*
X130200000Y-81300000D01*
X126800000Y-82800000D02*
X128400000Y-81200000D01*
X128400000Y-81200000D02*
X129800000Y-81200000D01*
X130200000Y-81300000D02*
X131500000Y-80000000D01*
%TO.N,Net-(C12-Pad2)*%
X146000000Y-82500000D02*
X147500000Y-81000000D01*
X147500000Y-81000000D02*
X147500000Y-80000000D01*
%TO.N,/Q1_C*%
X146000000Y-90000000D02*
X146000000Y-87500000D01*
X150800000Y-92100000D02*
X152400000Y-90500000D01*
X146500000Y-90500000D02*
X149500000Y-90500000D01*
X152400000Y-90500000D02*
X153200000Y-90500000D01*
%TO.N,/TONE_HI*%
X125200000Y-97800000D02*
X125200000Y-117700000D01*
X125200000Y-117700000D02*
X125500000Y-118000000D01*
X123600900Y-84199100D02*
X123600900Y-96200900D01*
X129000000Y-80000000D02*
X127400000Y-81600000D01*
X127400000Y-81600000D02*
X126200000Y-81600000D01*
X125600000Y-118000000D02*
X126300000Y-118700000D01*
X126300000Y-118700000D02*
X126300000Y-125300000D01*
X123600900Y-96200900D02*
X125200000Y-97800000D01*
X125500000Y-118000000D02*
X125600000Y-118000000D01*
X126300000Y-125300000D02*
X128000000Y-127000000D01*
X126200000Y-81600000D02*
X123600900Y-84199100D01*
X126300000Y-125300000D02*
X125000000Y-126600000D01*
%TO.N,/TONE_LO*%
X139913966Y-75500600D02*
X140499400Y-76086034D01*
X138499400Y-75500600D02*
X139500000Y-75500600D01*
X134000000Y-80000000D02*
X138499400Y-75500600D01*
X140499400Y-76086034D02*
X140499400Y-79933784D01*
X139500000Y-68880000D02*
X139500000Y-75500600D01*
X139250000Y-81183184D02*
X139250000Y-82750000D01*
X140499400Y-79933784D02*
X139250000Y-81183184D01*
X139500000Y-75500600D02*
X139913966Y-75500600D01*
%TO.N,/CATHODE*%
X156200000Y-92700000D02*
X156200000Y-124000000D01*
X154000000Y-87700000D02*
X154000000Y-89800000D01*
X155800000Y-92100000D02*
X156100000Y-92400000D01*
X156100000Y-92400000D02*
X156100000Y-92600000D01*
X151300000Y-85000000D02*
X154000000Y-87700000D01*
X154000000Y-89800000D02*
X155800000Y-91600000D01*
X155800000Y-91600000D02*
X155800000Y-92100000D01*
X156100000Y-92600000D02*
X156200000Y-92700000D01*
%TO.N,Net-(D2-K)*%
X146300000Y-86300000D02*
X144100000Y-86300000D01*
X146800000Y-86600000D02*
X146600000Y-86400000D01*
X148700000Y-85000000D02*
X147100000Y-86600000D01*
X144100000Y-86300000D02*
X143000000Y-87400000D01*
X147100000Y-86600000D02*
X146800000Y-86600000D01*
X146600000Y-86400000D02*
X146400000Y-86400000D01*
X146400000Y-86400000D02*
X146300000Y-86300000D01*
%TO.N,/Q4_E*%
X162700000Y-133700000D02*
X162700000Y-128100000D01*
X160400000Y-136000000D02*
X162700000Y-133700000D01*
%TO.N,/Q3_E*%
X162900000Y-96000000D02*
X159000000Y-96000000D01*
%TO.N,/Q2_E*%
X139400000Y-118500000D02*
X135000000Y-118500000D01*
X139360000Y-118500000D02*
X139400000Y-118500000D01*
%TO.N,/Q1_E*%
X149500000Y-94700000D02*
X149500000Y-93000000D01*
X148500000Y-95700000D02*
X149500000Y-94700000D01*
%TO.N,Net-(R5-Pad3)*%
X171000000Y-82690000D02*
X171000000Y-82700000D01*
X171000000Y-82700000D02*
X171000000Y-80000000D01*
%TO.N,/STAGE2_IN*%
X168500000Y-82690000D02*
X168500000Y-82700000D01*
X168500000Y-82700000D02*
X168500000Y-80000000D01*
%TO.N,/IN_JACK*%
X151300000Y-119400000D02*
X151300000Y-119500000D01*
X152200000Y-118500000D02*
X151300000Y-119400000D01*
X151300000Y-119500000D02*
X146400000Y-124400000D01*
%TO.N,/FX_OUT*%
X151000000Y-82800000D02*
X155000000Y-86800000D01*
X155000000Y-86800000D02*
X155700000Y-86800000D01*
X155700000Y-86800000D02*
X156300000Y-87400000D01*
X156600000Y-118800000D02*
X156800000Y-119000000D01*
X156600000Y-92500000D02*
X156600000Y-118800000D01*
X156500000Y-92200000D02*
X156500000Y-92400000D01*
X150000000Y-80000000D02*
X151000000Y-81000000D01*
X156500000Y-92400000D02*
X156600000Y-92500000D01*
X156300000Y-87600000D02*
X156400000Y-87700000D01*
X156400000Y-92100000D02*
X156500000Y-92200000D01*
X156400000Y-87700000D02*
X156400000Y-92100000D01*
X151000000Y-81000000D02*
X151000000Y-82800000D01*
X156300000Y-87400000D02*
X156300000Y-87600000D01*
X155600000Y-119800000D02*
X151000000Y-124400000D01*
%TO.N,/TIP*%
X139700000Y-136000000D02*
X146400000Y-129300000D01*
X131800000Y-106000000D02*
X131800000Y-134100000D01*
X139300000Y-136200000D02*
X139400000Y-136100000D01*
X133500000Y-135800000D02*
X135400000Y-133900000D01*
X135700000Y-133900000D02*
X135900000Y-134100000D01*
X139600000Y-136000000D02*
X139700000Y-136000000D01*
X131900000Y-104300000D02*
X131900000Y-105900000D01*
X135400000Y-133900000D02*
X135700000Y-133900000D01*
X135900000Y-134100000D02*
X136100000Y-134100000D01*
X139400000Y-136100000D02*
X139500000Y-136100000D01*
X136600000Y-134400000D02*
X138200000Y-136000000D01*
X138200000Y-136000000D02*
X138400000Y-136000000D01*
X131900000Y-105900000D02*
X131800000Y-106000000D01*
X138600000Y-136200000D02*
X139300000Y-136200000D01*
X127100000Y-99500000D02*
X131900000Y-104300000D01*
X138400000Y-136000000D02*
X138600000Y-136200000D01*
X131800000Y-134100000D02*
X133500000Y-135800000D01*
X139500000Y-136100000D02*
X139600000Y-136000000D01*
X136400000Y-134400000D02*
X136600000Y-134400000D01*
X136100000Y-134100000D02*
X136400000Y-134400000D01*
%TO.N,Net-(SW6A-B1)*%
X146400000Y-133800000D02*
X151000000Y-133800000D01*
%TO.N,/OUTPUT*%
X168400000Y-125000000D02*
X168500000Y-125000000D01*
X167700000Y-125100000D02*
X168300000Y-125100000D01*
X165900000Y-126900000D02*
X167700000Y-125100000D01*
X173900000Y-119600000D02*
X173900000Y-115800000D01*
X165900000Y-126900000D02*
X156700000Y-126900000D01*
X156500000Y-126700000D02*
X153300000Y-126700000D01*
X168300000Y-125100000D02*
X168400000Y-125000000D01*
X153300000Y-126700000D02*
X151000000Y-129000000D01*
X156700000Y-126900000D02*
X156500000Y-126700000D01*
X168500000Y-125000000D02*
X173900000Y-119600000D01*
%TO.N,/Q3_C*%
X159000000Y-89300000D02*
X159000000Y-93500000D01*
X155200000Y-85500000D02*
X159000000Y-89300000D01*
X155200000Y-85500000D02*
X158000000Y-82700000D01*
X158000000Y-80200000D02*
X159000000Y-79200000D01*
X159000000Y-79000000D02*
X159100000Y-78900000D01*
X159000000Y-79200000D02*
X159000000Y-79000000D01*
X158000000Y-82700000D02*
X158000000Y-80200000D01*
X159500000Y-71800000D02*
X159100000Y-72200000D01*
X159500000Y-68190000D02*
X159500000Y-71800000D01*
X159100000Y-78900000D02*
X159100000Y-72200000D01*
%TD*%
M02*
