M48
; DRILL file {KiCad 9.0.0} date 2026-08-05T21:13:54-0400
; FORMAT={-:-/ absolute / inch / decimal}
; #@! TF.CreationDate,2026-08-05T21:13:54-04:00
; #@! TF.GenerationSoftware,Kicad,Pcbnew,9.0.0
; #@! TF.FileFunction,Plated,1,2,PTH
FMAT,2
INCH
; #@! TA.AperFunction,Plated,PTH,ViaDrill
T1C0.0118
; #@! TA.AperFunction,Plated,PTH,ComponentDrill
T2C0.0280
; #@! TA.AperFunction,Plated,PTH,ComponentDrill
T3C0.0295
; #@! TA.AperFunction,Plated,PTH,ComponentDrill
T4C0.0315
; #@! TA.AperFunction,Plated,PTH,ComponentDrill
T5C0.0320
; #@! TA.AperFunction,Plated,PTH,ComponentDrill
T6C0.0354
; #@! TA.AperFunction,Plated,PTH,ComponentDrill
T7C0.0394
; #@! TA.AperFunction,Plated,PTH,ComponentDrill
T8C0.0433
; #@! TA.AperFunction,Plated,PTH,ComponentDrill
T9C0.0591
; #@! TA.AperFunction,Plated,PTH,ComponentDrill
T10C0.0610
; #@! TA.AperFunction,Plated,PTH,ComponentDrill
T11C0.0827
; #@! TA.AperFunction,Plated,PTH,ComponentDrill
T12C0.0984
%
G90
G05
T1
X5.1654Y-4.815
X5.1654Y-5.0709
X5.3386Y-3.311
X5.3858Y-3.311
X5.4921Y-4.8346
X5.563Y-4.7244
X5.8386Y-4.6181
X5.8898Y-4.2795
X5.937Y-3.626
X5.937Y-4.2717
X6.0748Y-3.5906
X6.126Y-3.9803
X6.126Y-4.7165
X6.1732Y-4.685
X6.189Y-3.9213
X6.1969Y-3.2441
X6.2283Y-3.5197
X6.2323Y-3.2795
X6.2638Y-3.4843
X6.4567Y-4.9724
X6.4921Y-3.8425
X6.5039Y-4.9724
X6.5394Y-3.7953
X6.7559Y-4.7165
T2
X6.7087Y-5.3169
X6.7559Y-5.1161
T3
X5.4866Y-4.6654
X5.4866Y-4.7154
X5.4866Y-4.7654
X5.8858Y-3.5614
X5.8858Y-3.6114
X5.8858Y-3.6614
X6.2598Y-3.6811
X6.2598Y-3.7311
X6.2598Y-3.7811
X6.4057Y-5.0415
X6.4557Y-5.0415
X6.5057Y-5.0415
T4
X4.9902Y-3.2579
X5.0394Y-5.0
X5.187Y-3.2579
X5.2362Y-5.0
X5.2854Y-3.2579
X5.3642Y-5.0005
X5.4232Y-4.8819
X5.4724Y-5.2362
X5.4724Y-5.315
X5.4823Y-3.2579
X5.5217Y-4.8819
X5.5315Y-3.4524
X5.5315Y-3.7524
X5.561Y-5.0005
X5.6102Y-4.6654
X5.748Y-3.248
X5.748Y-3.4449
X5.9102Y-4.6654
X5.9843Y-4.1732
X5.9843Y-4.3701
X6.1024Y-3.6614
X6.1024Y-3.8583
X6.1098Y-3.4646
X6.3287Y-2.6846
X6.3287Y-2.9846
X6.3976Y-4.7835
X6.4075Y-4.9016
X6.4098Y-3.4646
X6.4469Y-3.6614
X6.5059Y-4.9016
X6.5157Y-3.2677
X6.5157Y-3.4646
X6.5453Y-3.6614
X6.5945Y-4.7835
X6.6732Y-3.6614
X6.8701Y-3.6614
T5
X4.9213Y-4.6827
X4.9213Y-4.9827
X5.015Y-4.6654
X5.015Y-4.7638
X5.015Y-4.8622
X5.315Y-4.6654
X5.315Y-4.7638
X5.315Y-4.8622
X5.4921Y-2.7118
X5.4921Y-3.0118
X5.5906Y-2.7142
X5.5906Y-3.0142
X5.6299Y-3.4402
X5.6299Y-3.7402
X5.748Y-3.5433
X5.748Y-3.8433
X5.7827Y-4.5669
X5.8465Y-3.7673
X5.8465Y-4.0673
X5.9449Y-3.7673
X5.9449Y-4.0673
X5.9917Y-4.6654
X6.0311Y-3.563
X6.0827Y-4.5669
X6.1098Y-3.2677
X6.1098Y-3.3661
X6.2205Y-2.6846
X6.2205Y-2.9846
X6.2917Y-4.6654
X6.3165Y-5.3543
X6.3311Y-3.563
X6.3859Y-4.6728
X6.4098Y-3.2677
X6.4098Y-3.3661
X6.4126Y-3.7795
X6.6142Y-4.8819
X6.6142Y-5.1819
X6.6165Y-5.3543
X6.6339Y-3.2555
X6.6339Y-3.5555
X6.6859Y-4.6728
X6.7126Y-3.7795
X6.7323Y-3.2555
X6.7323Y-3.5555
X6.7913Y-4.6728
X6.7913Y-4.9728
T6
X5.8555Y-3.3465
X5.9555Y-3.3465
T7
X5.0787Y-3.1496
X5.1772Y-3.1496
X5.2559Y-5.1445
X5.2559Y-5.2445
X5.2559Y-5.3445
X5.2756Y-3.1496
X5.8071Y-3.1496
X5.9055Y-3.1496
X6.0039Y-3.1496
X6.5354Y-3.1496
X6.6339Y-3.1496
X6.7323Y-3.1496
X6.9331Y-5.1531
X6.9331Y-5.2531
X6.9331Y-5.3531
T8
X5.8563Y-4.1587
X5.8563Y-4.4587
T9
X5.003Y-3.9157
X5.003Y-4.5547
X5.503Y-3.9157
X5.503Y-4.5547
X6.3474Y-3.9197
X6.3474Y-4.5587
X6.8474Y-3.9197
X6.8474Y-4.5587
T10
X5.2559Y-4.1319
X5.2559Y-4.3209
T11
X5.6102Y-3.2677
X6.8602Y-3.2776
X6.8996Y-4.9409
T12
X5.7618Y-4.8957
X5.7618Y-5.0807
X5.7618Y-5.2657
X5.9469Y-4.8957
X5.9469Y-5.0807
X5.9469Y-5.2657
X6.1319Y-4.8957
X6.1319Y-5.0807
X6.1319Y-5.2657
T7
G00X5.1378Y-3.5525
M15
G01X5.1378Y-3.6312
M16
G05
G00X5.2165Y-3.7769
M15
G01X5.2953Y-3.7769
M16
G05
G00X5.3661Y-2.8681
M15
G01X5.3661Y-2.8406
M16
G05
G00X5.374Y-3.5525
M15
G01X5.374Y-3.6312
M16
G05
G00X5.7165Y-2.8681
M15
G01X5.7165Y-2.8406
M16
G05
G00X6.0945Y-2.8681
M15
G01X6.0945Y-2.8406
M16
G05
G00X6.4449Y-2.8681
M15
G01X6.4449Y-2.8406
M16
G05
G00X6.8228Y-2.8681
M15
G01X6.8228Y-2.8406
M16
G05
T8
G00X4.9882Y-2.8681
M15
G01X4.9882Y-2.8406
M16
G05
M30
