%TF.GenerationSoftware,KiCad,Pcbnew,9.0.0*%
%TF.CreationDate,2026-08-05T21:13:53-04:00*%
%TF.ProjectId,BIG_MUFF,4249475f-4d55-4464-962e-6b696361645f,rev?*%
%TF.SameCoordinates,Original*%
%TF.FileFunction,Soldermask,Bot*%
%TF.FilePolarity,Negative*%
%FSLAX46Y46*%
G04 Gerber Fmt 4.6, Leading zero omitted, Abs format (unit mm)*
G04 Created by KiCad (PCBNEW 9.0.0) date 2026-08-05 21:13:53*
%MOMM*%
%LPD*%
G01*
G04 APERTURE LIST*
G04 Aperture macros list*
%AMRoundRect*
0 Rectangle with rounded corners*
0 $1 Rounding radius*
0 $2 $3 $4 $5 $6 $7 $8 $9 X,Y pos of 4 corners*
0 Add a 4 corners polygon primitive as box body*
4,1,4,$2,$3,$4,$5,$6,$7,$8,$9,$2,$3,0*
0 Add four circle primitives for the rounded corners*
1,1,$1+$1,$2,$3*
1,1,$1+$1,$4,$5*
1,1,$1+$1,$6,$7*
1,1,$1+$1,$8,$9*
0 Add four rect primitives between the rounded corners*
20,1,$1+$1,$2,$3,$4,$5,0*
20,1,$1+$1,$4,$5,$6,$7,0*
20,1,$1+$1,$6,$7,$8,$9,0*
20,1,$1+$1,$8,$9,$2,$3,0*%
G04 Aperture macros list end*
%ADD10C,1.397000*%
%ADD11O,1.600000X1.600000*%
%ADD12R,1.600000X1.600000*%
%ADD13C,1.800000*%
%ADD14R,1.800000X1.800000*%
%ADD15R,1.700000X1.700000*%
%ADD16O,1.700000X1.700000*%
%ADD17C,1.710000*%
%ADD18C,2.700000*%
%ADD19R,1.500000X1.050000*%
%ADD20O,1.500000X1.050000*%
%ADD21C,1.600000*%
%ADD22R,3.500000X3.500000*%
%ADD23RoundRect,0.750000X-0.750000X-1.000000X0.750000X-1.000000X0.750000X1.000000X-0.750000X1.000000X0*%
%ADD24RoundRect,0.875000X-0.875000X-0.875000X0.875000X-0.875000X0.875000X0.875000X-0.875000X0.875000X0*%
%ADD25O,2.300000X3.000000*%
%ADD26C,3.000000*%
%ADD27R,3.000000X3.000000*%
%ADD28R,4.000000X4.000000*%
%ADD29C,4.000000*%
%ADD30R,2.200000X2.200000*%
%ADD31O,2.200000X2.200000*%
%ADD32R,1.050000X1.500000*%
%ADD33O,1.050000X1.500000*%
%ADD34RoundRect,0.249999X-1.025001X1.025001X-1.025001X-1.025001X1.025001X-1.025001X1.025001X1.025001X0*%
%ADD35C,2.550000*%
G04 APERTURE END LIST*
D10*
%TO.C,R7*%
X143000000Y-87380000D03*
X143000000Y-95000000D03*
%TD*%
D11*
%TO.C,D1*%
X140500000Y-87690000D03*
D12*
X140500000Y-95310000D03*
%TD*%
D10*
%TO.C,R12*%
X168500000Y-90310000D03*
X168500000Y-82690000D03*
%TD*%
%TO.C,R24*%
X125000000Y-118940000D03*
X125000000Y-126560000D03*
%TD*%
D13*
%TO.C,D2*%
X151270000Y-85000000D03*
D14*
X148730000Y-85000000D03*
%TD*%
D15*
%TO.C,J5*%
X176100000Y-135970000D03*
D16*
X176100000Y-133430000D03*
X176100000Y-130890000D03*
%TD*%
D10*
%TO.C,R20*%
X142000000Y-76560000D03*
X142000000Y-68940000D03*
%TD*%
D17*
%TO.C,F1*%
X171600000Y-129950000D03*
X170400000Y-135050000D03*
%TD*%
D12*
%TO.C,D6*%
X150120000Y-118500000D03*
D11*
X142500000Y-118500000D03*
%TD*%
D10*
%TO.C,R9*%
X162880000Y-96000000D03*
X170500000Y-96000000D03*
%TD*%
D18*
%TO.C,H3*%
X175250000Y-125500000D03*
%TD*%
D10*
%TO.C,R16*%
X135000000Y-121000000D03*
X127380000Y-121000000D03*
%TD*%
D19*
%TO.C,Q2*%
X159000000Y-93500000D03*
D20*
X159000000Y-94770000D03*
X159000000Y-96040000D03*
%TD*%
D10*
%TO.C,R15*%
X146880000Y-116000000D03*
X154500000Y-116000000D03*
%TD*%
D21*
%TO.C,C14*%
X139250000Y-82750000D03*
X134250000Y-82750000D03*
%TD*%
D10*
%TO.C,R4*%
X168000000Y-131620000D03*
X168000000Y-124000000D03*
%TD*%
%TO.C,R1*%
X172500000Y-118690000D03*
X172500000Y-126310000D03*
%TD*%
D21*
%TO.C,C10*%
X152000000Y-106000000D03*
X152000000Y-111000000D03*
%TD*%
%TO.C,C9*%
X141250000Y-127011600D03*
X136250000Y-127011600D03*
%TD*%
D10*
%TO.C,R10*%
X162810000Y-85500000D03*
X155190000Y-85500000D03*
%TD*%
D21*
%TO.C,C5*%
X174500000Y-93000000D03*
X169500000Y-93000000D03*
%TD*%
%TO.C,C12*%
X146000000Y-87500000D03*
X146000000Y-82500000D03*
%TD*%
D22*
%TO.C,J1*%
X136500000Y-91232500D03*
D23*
X130500000Y-91232500D03*
D24*
X133500000Y-95932500D03*
%TD*%
D10*
%TO.C,R19*%
X146000000Y-97620000D03*
X146000000Y-90000000D03*
%TD*%
%TO.C,R6*%
X171000000Y-82690000D03*
X171000000Y-90310000D03*
%TD*%
%TO.C,R3*%
X162201900Y-118688800D03*
X169821900Y-118688800D03*
%TD*%
D18*
%TO.C,H2*%
X142500000Y-83000000D03*
%TD*%
D21*
%TO.C,C1*%
X162750000Y-124500000D03*
X165250000Y-124500000D03*
%TD*%
D19*
%TO.C,Q3*%
X139360000Y-121040000D03*
D20*
X139360000Y-119770000D03*
X139360000Y-118500000D03*
%TD*%
D10*
%TO.C,R25*%
X139500000Y-76500000D03*
X139500000Y-68880000D03*
%TD*%
D21*
%TO.C,C7*%
X155000000Y-93000000D03*
X155000000Y-98000000D03*
%TD*%
D10*
%TO.C,R17*%
X135000000Y-118500000D03*
X127380000Y-118500000D03*
%TD*%
%TO.C,R2*%
X160440000Y-136000000D03*
X168060000Y-136000000D03*
%TD*%
%TO.C,R13*%
X152190000Y-118500000D03*
X159810000Y-118500000D03*
%TD*%
%TO.C,R14*%
X127380000Y-123500000D03*
X135000000Y-123500000D03*
%TD*%
D21*
%TO.C,C11*%
X126750000Y-82750000D03*
X131750000Y-82750000D03*
%TD*%
D10*
%TO.C,R21*%
X148500000Y-95690000D03*
X148500000Y-103310000D03*
%TD*%
D25*
%TO.C,R23*%
X145200000Y-72500000D03*
X154800000Y-72500000D03*
D14*
X147500000Y-80000000D03*
D13*
X150000000Y-80000000D03*
X152500000Y-80000000D03*
%TD*%
D21*
%TO.C,C8*%
X137750000Y-124000000D03*
X140250000Y-124000000D03*
%TD*%
D12*
%TO.C,C2*%
X139000000Y-133000000D03*
D21*
X139000000Y-135000000D03*
%TD*%
D25*
%TO.C,R5*%
X163700000Y-72500000D03*
X173300000Y-72500000D03*
D14*
X166000000Y-80000000D03*
D13*
X168500000Y-80000000D03*
X171000000Y-80000000D03*
%TD*%
D19*
%TO.C,Q4*%
X149500000Y-90460000D03*
D20*
X149500000Y-91730000D03*
X149500000Y-93000000D03*
%TD*%
D15*
%TO.C,J4*%
X133500000Y-130670000D03*
D16*
X133500000Y-133210000D03*
X133500000Y-135750000D03*
%TD*%
D21*
%TO.C,C4*%
X163750000Y-93000000D03*
X166250000Y-93000000D03*
%TD*%
D12*
%TO.C,D3*%
X162810000Y-88000000D03*
D11*
X155190000Y-88000000D03*
%TD*%
D12*
%TO.C,D4*%
X160750000Y-68190000D03*
D11*
X160750000Y-75810000D03*
%TD*%
D10*
%TO.C,R18*%
X151000000Y-95690000D03*
X151000000Y-103310000D03*
%TD*%
D21*
%TO.C,C3*%
X165500000Y-88000000D03*
X165500000Y-83000000D03*
%TD*%
D26*
%TO.C,J3*%
X161225000Y-115790000D03*
X161225000Y-99560000D03*
D27*
X173925000Y-115790000D03*
D26*
X173925000Y-99560000D03*
%TD*%
D10*
%TO.C,R11*%
X158000000Y-75810000D03*
X158000000Y-68190000D03*
%TD*%
D25*
%TO.C,R26*%
X126700000Y-72500000D03*
X136300000Y-72500000D03*
D14*
X129000000Y-80000000D03*
D13*
X131500000Y-80000000D03*
X134000000Y-80000000D03*
%TD*%
D28*
%TO.C,SW6*%
X146350000Y-124350000D03*
D29*
X151050000Y-124350000D03*
X155750000Y-124350000D03*
X146350000Y-129050000D03*
X151050000Y-129050000D03*
X155750000Y-129050000D03*
X146350000Y-133750000D03*
X151050000Y-133750000D03*
X155750000Y-133750000D03*
%TD*%
D21*
%TO.C,C6*%
X162500000Y-121500000D03*
X167500000Y-121500000D03*
%TD*%
%TO.C,C13*%
X133000000Y-127000000D03*
X128000000Y-127000000D03*
%TD*%
D30*
%TO.C,D5*%
X148750000Y-113250000D03*
D31*
X148750000Y-105630000D03*
%TD*%
D32*
%TO.C,Q1*%
X165245200Y-128053200D03*
D33*
X163975200Y-128053200D03*
X162705200Y-128053200D03*
%TD*%
D10*
%TO.C,R8*%
X162810000Y-83000000D03*
X155190000Y-83000000D03*
%TD*%
D18*
%TO.C,H1*%
X174250000Y-83250000D03*
%TD*%
D26*
%TO.C,J2*%
X139775000Y-99460000D03*
X139775000Y-115690000D03*
D27*
X127075000Y-99460000D03*
D26*
X127075000Y-115690000D03*
%TD*%
D10*
%TO.C,R22*%
X160810000Y-90500000D03*
X153190000Y-90500000D03*
%TD*%
D34*
%TO.C,BT1*%
X133500000Y-104950000D03*
D35*
X133500000Y-109750000D03*
%TD*%
M02*
