%TF.GenerationSoftware,KiCad,Pcbnew,9.0.0*%
%TF.CreationDate,2026-08-05T20:37:03-04:00*%
%TF.ProjectId,BIG_MUFF,4249475f-4d55-4464-962e-6b696361645f,rev?*%
%TF.SameCoordinates,Original*%
%TF.FileFunction,Legend,Bot*%
%TF.FilePolarity,Positive*%
%FSLAX46Y46*%
G04 Gerber Fmt 4.6, Leading zero omitted, Abs format (unit mm)*
G04 Created by KiCad (PCBNEW 9.0.0) date 2026-08-05 20:37:03*
%MOMM*%
%LPD*%
G01*
G04 APERTURE LIST*
%ADD10C,0.150000*%
G04 APERTURE END LIST*
D10*
X172166666Y-93359580D02*
X172214285Y-93407200D01*
X172214285Y-93407200D02*
X172357142Y-93454819D01*
X172357142Y-93454819D02*
X172452380Y-93454819D01*
X172452380Y-93454819D02*
X172595237Y-93407200D01*
X172595237Y-93407200D02*
X172690475Y-93311961D01*
X172690475Y-93311961D02*
X172738094Y-93216723D01*
X172738094Y-93216723D02*
X172785713Y-93026247D01*
X172785713Y-93026247D02*
X172785713Y-92883390D01*
X172785713Y-92883390D02*
X172738094Y-92692914D01*
X172738094Y-92692914D02*
X172690475Y-92597676D01*
X172690475Y-92597676D02*
X172595237Y-92502438D01*
X172595237Y-92502438D02*
X172452380Y-92454819D01*
X172452380Y-92454819D02*
X172357142Y-92454819D01*
X172357142Y-92454819D02*
X172214285Y-92502438D01*
X172214285Y-92502438D02*
X172166666Y-92550057D01*
X171261904Y-92454819D02*
X171738094Y-92454819D01*
X171738094Y-92454819D02*
X171785713Y-92931009D01*
X171785713Y-92931009D02*
X171738094Y-92883390D01*
X171738094Y-92883390D02*
X171642856Y-92835771D01*
X171642856Y-92835771D02*
X171404761Y-92835771D01*
X171404761Y-92835771D02*
X171309523Y-92883390D01*
X171309523Y-92883390D02*
X171261904Y-92931009D01*
X171261904Y-92931009D02*
X171214285Y-93026247D01*
X171214285Y-93026247D02*
X171214285Y-93264342D01*
X171214285Y-93264342D02*
X171261904Y-93359580D01*
X171261904Y-93359580D02*
X171309523Y-93407200D01*
X171309523Y-93407200D02*
X171404761Y-93454819D01*
X171404761Y-93454819D02*
X171642856Y-93454819D01*
X171642856Y-93454819D02*
X171738094Y-93407200D01*
X171738094Y-93407200D02*
X171785713Y-93359580D01*
X136431009Y-106564285D02*
X136478628Y-106707142D01*
X136478628Y-106707142D02*
X136526247Y-106754761D01*
X136526247Y-106754761D02*
X136621485Y-106802380D01*
X136621485Y-106802380D02*
X136764342Y-106802380D01*
X136764342Y-106802380D02*
X136859580Y-106754761D01*
X136859580Y-106754761D02*
X136907200Y-106707142D01*
X136907200Y-106707142D02*
X136954819Y-106611904D01*
X136954819Y-106611904D02*
X136954819Y-106230952D01*
X136954819Y-106230952D02*
X135954819Y-106230952D01*
X135954819Y-106230952D02*
X135954819Y-106564285D01*
X135954819Y-106564285D02*
X136002438Y-106659523D01*
X136002438Y-106659523D02*
X136050057Y-106707142D01*
X136050057Y-106707142D02*
X136145295Y-106754761D01*
X136145295Y-106754761D02*
X136240533Y-106754761D01*
X136240533Y-106754761D02*
X136335771Y-106707142D01*
X136335771Y-106707142D02*
X136383390Y-106659523D01*
X136383390Y-106659523D02*
X136431009Y-106564285D01*
X136431009Y-106564285D02*
X136431009Y-106230952D01*
X135954819Y-107088095D02*
X135954819Y-107659523D01*
X136954819Y-107373809D02*
X135954819Y-107373809D01*
X136954819Y-108516666D02*
X136954819Y-107945238D01*
X136954819Y-108230952D02*
X135954819Y-108230952D01*
X135954819Y-108230952D02*
X136097676Y-108135714D01*
X136097676Y-108135714D02*
X136192914Y-108040476D01*
X136192914Y-108040476D02*
X136240533Y-107945238D01*
M02*
